<?xml version="1.0" encoding="UTF-8"?>
<!DOCTYPE svg PUBLIC "-//W3C//DTD SVG 1.1//EN" "http://www.w3.org/Graphics/SVG/1.1/DTD/svg11.dtd">
<!-- Creator: CorelDRAW (Evaluation Version) -->
<svg xmlns="http://www.w3.org/2000/svg" xml:space="preserve" width="0.853331in" height="0.853331in" version="1.1" style="shape-rendering:geometricPrecision; text-rendering:geometricPrecision; image-rendering:optimizeQuality; fill-rule:evenodd; clip-rule:evenodd"
viewBox="0 0 853.33 853.33"
 xmlns:xlink="http://www.w3.org/1999/xlink"
 xmlns:xodm="http://www.corel.com/coreldraw/odm/2003">
 <defs>
  <style type="text/css">
   <![CDATA[
    .fil0 {fill:white}
   ]]>
  </style>
 </defs>
 <g id="Layer_x0020_1">
  <metadata id="CorelCorpID_0Corel-Layer"/>
  <g id="_1748376084992">
   <path class="fil0" d="M93.89 461.3c234.38,-117.78 455.76,-265.33 609.27,-428.29 14.27,10.41 46.27,2.25 56.28,-4.22 -67.93,113.79 -162.16,443.28 -196.84,795.75l-14.68 -46.28c39.65,-321.31 76,-548.3 138.53,-687.98 -135.55,165.74 -301.66,282.17 -523.94,375 110.35,-18.83 180.73,-47.03 310.19,11.54 -94.1,-22.59 -260.9,9.56 -341.59,32.43l-37.21 -47.94z"/>
   <path class="fil0" d="M324.54 395.74c161.63,-21.6 224.31,24.73 243.48,51.76 -6.91,49.31 -166.12,159.99 -292.43,227.55l21.33 -26c147.69,-105.56 222.61,-178.38 231.94,-197.15 -3.63,-22.81 -90.76,-47.36 -204.33,-56.17z"/>
  </g>
 </g>
</svg>
